# xmcd
#
# Track frame offsets: 
#        150
#        19113
#        39123
#        60273
#        80685
#        96553
#        114515
#        135718
#        153728
#        176163
#
# Disc length: 2628 seconds
#
# Revision: 3
# Processed by: cddbd v1.5.2PL0 Copyright (c) Steve Scherf et al.
# Submitted via: ExactAudioCopy v1.0b4
#
DISCID=7f0a420a
DTITLE=中山美穂 - SUMMER BREEZE
DYEAR=1986
DGENRE=JPop
TTITLE0=Tropic Mystery
TTITLE1=クローズ・アップ
TTITLE2=Leave Me Alone
TTITLE3=ひと夏のアクトレス
TTITLE4=Ocean In The Rain
TTITLE5=サインはハングルーズ
TTITLE6=Rising Love
TTITLE7=わがまま
TTITLE8=瞳のかげり
TTITLE9=You're My Only Shinin' Star
EXTD=YEAR: 1986
EXTT0=
EXTT1=
EXTT2=
EXTT3=
EXTT4=
EXTT5=
EXTT6=
EXTT7=
EXTT8=
EXTT9=
PLAYORDER=
